<svg xmlns="http://www.w3.org/2000/svg" width="1440" height="1500" viewBox="0 0 1440 1500" fill="none">
 <g stroke="#ddd" stroke-width="1" stroke-opacity=".65" transform="translate(1000 470)"><circle r="285"/><circle r="304" stroke-opacity=".3"/><ellipse rx="98" ry="285"/><ellipse rx="209" ry="285"/><path d="M-285 0h570M0-285v570M-247-142c144 42 350 42 494 0M-247 142c144-42 350-42 494 0M-171-228c105 32 237 32 342 0M-171 228c105-32 237-32 342 0"/></g>
 <g fill="#ddd" font-family="Georgia,serif" font-weight="400"><text x="96" y="248" font-size="84">Aa</text><text x="235" y="500" font-size="65">Бб</text><text x="72" y="820" font-size="70">文</text><text x="1227" y="916" font-size="80">Ω</text><text x="171" y="1190" font-size="86">あ</text><text x="1030" y="1283" font-size="94">é</text></g>
 <g stroke="#ccc" stroke-width="1" stroke-opacity=".6"><path d="M92 294h232M82 868h199M1069 1328h228M1126 960h182M290 505l306 251M628 793l379 224M307 1174l294-269" stroke-dasharray="3 10"/><circle cx="612" cy="780" r="12"/><circle cx="612" cy="780" r="24" stroke-opacity=".4"/><path d="M389 1320h206a54 54 0 0 1 48 29 54 54 0 0 1 48-29h206v128H691a54 54 0 0 0-48 29 54 54 0 0 0-48-29H389Z M643 1349v128M417 1359h151M417 1386h131M719 1359h151M719 1386h121"/></g>
 <g fill="#ccc" font-family="Arial,sans-serif" font-size="12" letter-spacing="4"><text x="95" y="95">LANGUAGES · CULTURES · REGIONS</text><text x="949" y="1465">ФИЯР · МГУ</text></g>
</svg>
