<svg xmlns="http://www.w3.org/2000/svg" width="1440" height="1000" viewBox="0 0 1440 1000" fill="none" stroke="#8293ab" stroke-width="1.3">
 <g opacity=".7">
  <path d="M330 824h780M370 798h700M400 776h640M438 750h564M440 455h560M425 430h590L720 310 425 430Z"/>
  <path d="M640 335v-65c0-45 36-80 80-80s80 35 80 80v65M655 269h130M668 226h104M700 192v-30h40v30M720 162v-38M707 124h26"/>
  <path d="M468 466h42v269h-42zm100 0h42v269h-42zm100 0h42v269h-42zm100 0h42v269h-42zm100 0h42v269h-42z"/>
  <path d="M459 465h60m40 0h60m40 0h60m40 0h60m40 0h60M459 739h60m40 0h60m40 0h60m40 0h60m40 0h60"/>
  <path d="M441 510H185v240h255M999 510h256v240h-255M170 495h270m560 0h270M185 750H150m1140 0h-35"/>
  <path d="M214 544h32v150h-32zm65 0h32v150h-32zm65 0h32v150h-32zm704 0h32v150h-32zm65 0h32v150h-32zm65 0h32v150h-32z"/>
  <path d="M230 544v150m65-150v150m65-150v150m704-150v150m65-150v150m65-150v150M489 476v248m100-248v248m100-248v248m100-248v248m100-248v248" opacity=".5"/>
  <path d="M90 850h1260M90 865h1260M720 92V60M705 76h30" opacity=".35"/>
 </g>
 <g opacity=".25"><circle cx="720" cy="450" r="340"/><circle cx="720" cy="450" r="366"/><path d="M40 450h90m1180 0h90M720 900v70"/></g>
</svg>
